<svg width="131" height="24" viewBox="0 0 131 24" fill="none" xmlns="http://www.w3.org/2000/svg">
<path fill-rule="evenodd" clip-rule="evenodd" d="M128.901 19.2477V18.888H129.132C129.257 18.888 129.429 18.8976 129.429 19.0514C129.429 19.2181 129.341 19.2477 129.192 19.2477H128.901ZM128.901 19.5001H129.055L129.413 20.1283H129.805L129.41 19.4745C129.614 19.4593 129.782 19.3623 129.782 19.0867C129.782 18.7446 129.546 18.634 129.147 18.634H128.569V20.1283H128.901V19.5001ZM130.582 19.3832C130.582 18.5058 129.9 17.997 129.14 17.997C128.374 17.997 127.693 18.5058 127.693 19.3832C127.693 20.2605 128.374 20.7717 129.14 20.7717C129.899 20.7717 130.582 20.2605 130.582 19.3832ZM130.165 19.3832C130.165 20.0226 129.695 20.452 129.14 20.452V20.4472C128.568 20.452 128.107 20.0226 128.107 19.3832C128.107 18.7446 128.569 18.3167 129.14 18.3167C129.696 18.3167 130.165 18.7446 130.165 19.3832Z" fill="white"/>
<path fill-rule="evenodd" clip-rule="evenodd" d="M77.6381 4.53509L77.6397 20.2878H82.0883V4.53509H77.6381ZM42.6417 4.51426V20.2878H47.1311V8.04379L50.6326 8.05501C51.784 8.05501 52.5797 8.33144 53.135 8.92357C53.8393 9.67354 54.1261 10.8818 54.1261 13.0941V20.2878H58.4745V11.5725C58.4745 5.35237 54.5099 4.51346 50.631 4.51346H42.6425L42.6417 4.51426ZM84.8014 4.53589V20.2878H92.0175C95.8619 20.2878 97.1167 19.6484 98.4732 18.2149C99.4331 17.2085 100.052 14.9987 100.052 12.5845C100.052 10.3706 99.5276 8.39554 98.6126 7.16561C96.9644 4.96617 94.5903 4.53589 91.0448 4.53589H84.8014ZM89.2147 7.96527H91.1273C93.902 7.96527 95.6968 9.21202 95.6968 12.4451C95.6968 15.6798 93.902 16.9257 91.1273 16.9257H89.2147V7.96527ZM71.2241 4.53589L67.5111 17.0195L63.9535 4.5367L59.1516 4.53589L64.2315 20.2878H70.644L75.7648 4.53589H71.2241ZM102.123 20.2878H106.572V4.5367L102.121 4.53589L102.123 20.2878ZM114.594 4.5415L108.382 20.2822H112.768L113.752 17.5002H121.103L122.033 20.2822H126.796L120.537 4.5407L114.594 4.5415ZM117.481 7.414L120.177 14.7888H114.702L117.481 7.414Z" fill="white"/>
<path fill-rule="evenodd" clip-rule="evenodd" d="M13.9504 7.16162V4.99423C14.1603 4.9782 14.3734 4.96778 14.5898 4.96057C20.5191 4.77468 24.4092 10.0558 24.4092 10.0558C24.4092 10.0558 20.2074 15.8905 15.7027 15.8905C15.1074 15.8929 14.5153 15.7984 13.9504 15.6101V9.03656C16.258 9.31539 16.7227 10.3346 18.1105 12.6486L21.1969 10.0461C21.1969 10.0461 18.9438 7.09111 15.1458 7.09111C14.7332 7.09111 14.3382 7.11995 13.9504 7.16162ZM13.9504 0V3.23948C14.1627 3.22265 14.3758 3.20903 14.5898 3.20101C22.8347 2.92378 28.2071 9.96361 28.2071 9.96361C28.2071 9.96361 22.0374 17.4666 15.609 17.4666C15.02 17.4666 14.468 17.4121 13.9504 17.3199V19.3215C14.3935 19.3776 14.8526 19.4112 15.3317 19.4112C21.3131 19.4112 25.6391 16.3568 29.8281 12.7408C30.5227 13.2968 33.3664 14.6502 33.9505 15.2431C29.9675 18.5763 20.6857 21.2645 15.4231 21.2645C14.9311 21.2629 14.4399 21.2373 13.9504 21.1876V24H36.686V0H13.9504ZM13.9504 15.6101V17.3199C8.4177 16.3344 6.8817 10.5822 6.8817 10.5822C6.8817 10.5822 9.53866 7.63837 13.9504 7.16162V9.03656L13.9416 9.03576C11.6259 8.75772 9.8175 10.9211 9.8175 10.9211C9.8175 10.9211 10.8311 14.562 13.9504 15.6101ZM4.12378 10.333C4.12378 10.333 7.40251 5.49341 13.9504 4.99423V3.23787C6.69821 3.82039 0.417969 9.96201 0.417969 9.96201C0.417969 9.96201 3.97474 20.2445 13.9504 21.186V19.3215C6.6301 18.4008 4.12378 10.333 4.12378 10.333Z" fill="white"/>
</svg>
