<svg width="94" height="32" viewBox="0 0 94 32" fill="none" xmlns="http://www.w3.org/2000/svg">
<path d="M6.99333 5.607C5.7927 5.06496 5.05986 4.71044 4.79295 4.54344C4.4721 4.33633 4.31214 4.06857 4.31214 3.74111C4.31214 2.86507 5.10636 2.42659 6.6948 2.42659C7.82289 2.42659 9.04491 2.68968 10.3599 3.21679V0.517784C8.592 0.172595 7.24071 0 6.30606 0C4.6116 0 3.23706 0.364781 2.18244 1.09341C1.11573 1.8295 0.581909 2.89959 0.581909 4.30461C0.581909 5.39522 0.948329 6.29831 1.68117 7.01388C2.24661 7.55592 3.46119 8.21178 5.32584 8.98053C6.36465 9.40875 7.01007 9.74367 7.26303 9.98437C7.50297 10.1971 7.63875 10.505 7.63317 10.8268C7.63317 11.7234 6.78687 12.1721 5.0952 12.1721C3.86946 12.1721 2.46051 11.9212 0.869279 11.4183V14.2237C2.30892 14.5642 3.78297 14.7377 5.26167 14.7405C6.9831 14.7405 8.38368 14.4131 9.46527 13.7581C10.7998 12.9493 11.4666 11.7747 11.4666 10.2353C11.4666 9.16432 11.1262 8.29108 10.4455 7.61563C9.87261 7.04653 8.7222 6.37668 6.99333 5.607ZM13.7005 14.4532H17.6567V0.24723H13.7005V14.4532ZM25.0986 8.36851H30.6116V6.02402H25.0986V2.81656H31.4319V0.24723H21.2856V14.4532H31.5956V11.7392H25.0986V8.36851ZM42.8709 9.32385L39.3071 0.24723H34.1782V14.4532H36.9654V4.3951L41.0388 14.5978H43.4912L47.6455 4.3951V14.4532H51.3962V0.24723H46.5239L42.8709 9.32385ZM58.839 8.36851H64.352V6.02402H58.839V2.81656H65.1723V0.24723H55.026V14.4532H65.335V11.7392H58.839V8.36851ZM77.3887 9.75673L72.5248 0.24723H67.939V14.4532H70.7272V4.81493L75.7203 14.4532H80.176V0.24723H77.3887V9.75673ZM89.1086 5.607C87.9089 5.06496 87.1751 4.71044 86.9082 4.54344C86.5874 4.33633 86.4274 4.06857 86.4274 3.74111C86.4274 2.86507 87.2216 2.42659 88.8101 2.42659C89.9382 2.42659 91.1602 2.68968 92.4752 3.21679V0.517784C90.7073 0.172595 89.356 0 88.4213 0C86.7269 0 85.3523 0.364781 84.2977 1.09341C83.231 1.8295 82.6972 2.89959 82.6972 4.30461C82.6972 5.39522 83.0636 6.29831 83.7965 7.01388C84.3619 7.55592 85.5765 8.21178 87.4411 8.98053C88.4799 9.40875 89.1263 9.74367 89.3783 9.98437C89.6182 10.1971 89.754 10.505 89.7485 10.8268C89.7485 11.7234 88.9022 12.1721 87.2105 12.1721C85.9847 12.1721 84.5758 11.9212 82.9846 11.4183V14.2237C84.4242 14.5642 85.8983 14.7377 87.377 14.7405C89.0984 14.7405 90.499 14.4131 91.5806 13.7581C92.9151 12.9493 93.5819 11.7747 93.5819 10.2353C93.5819 9.16432 93.2415 8.29108 92.5608 7.61563C91.9879 7.04653 90.8375 6.37668 89.1086 5.607Z" fill="white"/>
<path d="M12.1046 17.656C10.8677 17.586 9.61221 17.5394 8.34741 17.5394C7.08261 17.5394 5.82711 17.586 4.59021 17.656C2.34984 17.7745 0.591209 19.6273 0.581909 21.8776V27.6618C0.591209 29.9121 2.34984 31.7649 4.59021 31.8834C5.82711 31.9534 7.08261 32 8.34741 32C9.61221 32 10.8677 31.9534 12.1046 31.8834C14.345 31.7649 16.1036 29.9121 16.1129 27.6618V27.3353H14.2994V27.6618C14.292 28.9362 13.2987 29.9858 12.0302 30.0595C10.8119 30.1341 9.58431 30.1808 8.34741 30.1808C7.11051 30.1808 5.88291 30.1341 4.66461 30.0595C3.39609 29.9858 2.40285 28.9362 2.39541 27.6618V21.8776C2.40285 20.6031 3.39609 19.5536 4.66461 19.4799C5.88291 19.4052 7.11051 19.3586 8.34741 19.3586C9.58431 19.3586 10.8119 19.4052 12.0302 19.4799C13.2987 19.5536 14.292 20.6031 14.2994 21.8776V23.8367H6.81291V25.7026H16.1129V21.8776C16.1036 19.6273 14.345 17.7745 12.1046 17.656ZM28.3936 17.6793C27.3938 17.5953 26.3708 17.5394 25.3525 17.5394C24.3341 17.5394 23.3111 17.5953 22.3123 17.6793C20.1463 17.8799 18.4853 19.6954 18.4705 21.8776V31.8601H20.284V21.8776C20.2923 20.6059 21.2772 19.5564 22.542 19.4724C23.4664 19.408 24.4039 19.3586 25.3525 19.3586C26.3011 19.3586 27.2394 19.4052 28.1638 19.4724C29.4286 19.5573 30.4126 20.6059 30.421 21.8776V31.8601H32.2345V21.8776C32.2196 19.6963 30.5595 17.8808 28.3936 17.6793ZM46.0589 17.656C44.822 17.586 43.5665 17.5394 42.3017 17.5394C41.0369 17.5394 39.7814 17.586 38.5445 17.656C36.3041 17.7745 34.5455 19.6273 34.5362 21.8776V27.6618C34.5455 29.9121 36.3041 31.7649 38.5445 31.8834C39.7814 31.9534 41.0369 32 42.3017 32C43.5665 32 44.822 31.9534 46.0589 31.8834C48.2993 31.7649 50.0579 29.9121 50.0672 27.6618V27.3353H48.2537V27.6618C48.2463 28.9362 47.253 29.9858 45.9845 30.0595C44.7662 30.1341 43.5386 30.1808 42.3017 30.1808C41.0648 30.1808 39.8372 30.1341 38.6189 30.0595C37.3504 29.9858 36.3572 28.9362 36.3497 27.6618V21.8776C36.3572 20.6031 37.3504 19.5536 38.6189 19.4799C39.8372 19.4052 41.0648 19.3586 42.3017 19.3586C43.5386 19.3586 44.7662 19.4052 45.9845 19.4799C47.253 19.5536 48.2463 20.6031 48.2537 21.8776V23.8367H40.7672V25.7026H50.0672V21.8776C50.0579 19.6273 48.2993 17.7745 46.0589 17.656ZM52.6238 21.8766V31.8591H54.4373V21.8766C54.4373 20.6013 55.4807 19.4976 56.7409 19.4976H60.4358V17.6774H56.6777C54.7023 17.6793 52.6238 19.3978 52.6238 21.8766ZM73.2614 17.656C72.0245 17.586 70.769 17.5394 69.5042 17.5394C68.2394 17.5394 66.9839 17.586 65.747 17.656C63.5066 17.7745 61.748 19.6273 61.7387 21.8776V27.6618C61.748 29.9121 63.5066 31.7649 65.747 31.8834C66.9839 31.9534 68.2394 32 69.5042 32C70.769 32 72.0245 31.9534 73.2614 31.8834C75.5018 31.7649 77.2604 29.9121 77.2697 27.6618V23.8367H67.9697V25.7026H75.4562V27.6618C75.4488 28.9362 74.4555 29.9858 73.187 30.0595C71.9687 30.1341 70.7411 30.1808 69.5042 30.1808C68.2673 30.1808 67.0397 30.1341 65.8214 30.0595C64.5529 29.9858 63.5596 28.9362 63.5522 27.6618V21.8776C63.5596 20.6031 64.5529 19.5536 65.8214 19.4799C67.0397 19.4052 68.2673 19.3586 69.5042 19.3586C70.7411 19.3586 71.9687 19.4052 73.187 19.4799C74.4555 19.5536 75.4488 20.6031 75.4562 21.8776V22.2041H77.2697V21.8776C77.2604 19.6273 75.5018 17.7745 73.2614 17.656ZM93.5819 17.6793H91.3109L85.1496 25.8799C84.6009 26.6076 84.3052 27.4957 84.307 28.4082V31.8601H86.1205V28.4082C86.1205 27.8904 86.2879 27.3866 86.5995 26.9742L93.5819 17.6793ZM79.843 17.6793H77.4752L83.935 25.4013L85.0547 23.9095L79.843 17.6793Z" fill="white"/>
</svg>
