<svg width="111" height="20" viewBox="0 0 111 20" fill="none" xmlns="http://www.w3.org/2000/svg">
<path d="M24.9836 19.1029L28.2886 0.523252L33.0549 0.527967L36.9563 9.99701L40.7508 0.652932C41.0193 0.336983 44.6689 0.306331 45.2605 0.417149C45.5409 0.469022 45.7286 0.504389 45.8046 0.815623L48.6962 19.1053H43.7161L42.2905 9.06331L37.6335 19.0676L36.0012 19.1218L31.5057 8.82753L29.9637 19.1053H24.9836V19.1029Z" fill="white"/>
<path d="M105.602 11.631V0.419507H110.226L110.582 0.770824V19.1029H105.483L96.5919 8.12725V19.1029H91.6118V0.770824L91.9682 0.419507H96.4731L105.602 11.631Z" fill="white"/>
<path d="M5.71648 0.24267C8.12576 -0.200602 11.609 0.228523 13.5835 1.7281L11.5591 5.30965C10.3521 4.30757 6.70015 3.32907 6.3485 5.55014C6.07526 7.27136 9.34465 7.5543 10.516 8.01643C13.8567 9.33682 14.7857 11.2089 14.2939 14.7645C13.4979 20.52 4.16969 20.836 0.581909 17.5515L2.58251 13.7342C4.21721 14.8424 6.70965 16.4339 8.61759 15.0145C11.8513 12.6118 4.04614 11.1311 2.94842 10.3342C-0.560954 7.77594 1.52044 1.01368 5.71648 0.24267Z" fill="white"/>
<path d="M21.9019 0.419507V19.1029H16.9218V0.770824L17.2782 0.419507H21.9019Z" fill="white"/>
<path d="M65.4329 6.69133L62.8763 5.12338C59.9538 4.02934 56.4682 6.04765 56.1735 9.13169C55.6437 14.7127 61.6693 16.639 65.4329 12.9985V18.8365C58.1361 21.4537 50.5305 17.1412 50.9582 9.13169C51.3265 2.23739 59.3384 -2.11516 65.4329 1.20231V6.69133Z" fill="white"/>
<path d="M81.9604 14.7032L84.8758 18.0136C76.4504 23.7927 64.827 16.0849 68.8092 6.16318C72.2164 -2.32501 85.7573 -1.96426 88.4992 6.74321C89.4686 9.82253 89.0386 13.8827 86.6293 16.257L83.0843 12.9915C83.4977 11.2278 84.1796 10.3908 83.6213 8.50922C82.2147 3.75584 75.3575 3.52241 73.6159 8.0966C72.0881 12.1073 75.4882 15.7808 79.7222 15.0451C80.5206 14.906 81.2334 14.0949 81.9604 14.7056V14.7032Z" fill="white"/>
<path d="M77.6979 6.74556C82.4309 5.79536 83.3314 12.3926 79.487 13.1777C74.5805 14.1798 73.6824 7.55194 77.6979 6.74556Z" fill="white"/>
</svg>
